<svg xmlns="http://www.w3.org/2000/svg" version="1.1" xmlns:xlink="http://www.w3.org/1999/xlink" xmlns:svgjs="http://svgjs.com/svgjs" width="1920" height="1080" preserveAspectRatio="none" viewBox="0 0 1920 1080"><g mask="url(&quot;#SvgjsMask2171&quot;)" fill="none"><rect width="1920" height="1080" x="0" y="0" fill="url(#SvgjsLinearGradient2172)"></rect><path d="M621.46 1293.56C824.37 1230.51 870.18 660.24 1174.46 648.12 1478.75 636 1450.96 783.12 1727.47 783.12 2003.97 783.12 2138.16 649.09 2280.47 648.12" stroke="rgba(51,121,194,0.58)" stroke-width="2"></path><path d="M1248.01 1112.99C1438.48 1048.72 1489.25 494.39 1756.7 490.26 2024.15 486.13 2119.15 771.76 2265.39 781.86" stroke="rgba(51,121,194,0.58)" stroke-width="2"></path><path d="M516.92 1231.26C787.34 1175.3 848.18 516.56 1322.44 475.41 1796.7 434.26 1916.43 219.38 2127.96 216.21" stroke="rgba(51,121,194,0.58)" stroke-width="2"></path><path d="M546.78 1102.45C717.72 1079.9 812.96 688.56 1096.8 686.35 1380.64 684.14 1371.82 821.35 1646.83 821.35 1921.84 821.35 2055.27 687.33 2196.85 686.35" stroke="rgba(51,121,194,0.58)" stroke-width="2"></path><path d="M346.52 1184.45C556.33 1182.03 713.02 963.18 1151.9 948.23 1590.79 933.28 1725.44 500.07 1957.29 483.83" stroke="rgba(51,121,194,0.58)" stroke-width="2"></path></g><defs><mask id="SvgjsMask2171"><rect width="1920" height="1080" fill="#ffffff"></rect></mask><linearGradient x1="89.06%" y1="119.44%" x2="10.94%" y2="-19.44%" gradientUnits="userSpaceOnUse" id="SvgjsLinearGradient2172"><stop stop-color="rgba(0, 9, 64, 1)" offset="0.5"></stop><stop stop-color="rgba(0, 41, 94, 1)" offset="1"></stop></linearGradient></defs></svg>