<svg xmlns="http://www.w3.org/2000/svg" version="1.1" xmlns:xlink="http://www.w3.org/1999/xlink" xmlns:svgjs="http://svgjs.com/svgjs" width="1920" height="1080" preserveAspectRatio="none" viewBox="0 0 1920 1080"><g mask="url(&quot;#SvgjsMask1369&quot;)" fill="none"><rect width="1920" height="1080" x="0" y="0" fill="url(#SvgjsLinearGradient1370)"></rect><path d="M922.38 1268.88C1202.31 1136.88 1232.26 250.84 1606.63 237.21 1981 223.58 2090.68 641.98 2290.88 658.41" stroke="rgba(51,121,194,0.58)" stroke-width="2"></path><path d="M392.67 1090.71C589.87 1026.69 630.73 466.64 924.42 454.28 1218.11 441.92 1190.3 589.28 1456.17 589.28 1722.05 589.28 1850.77 455.33 1987.92 454.28" stroke="rgba(51,121,194,0.58)" stroke-width="2"></path><path d="M904.43 1248.71C1123.66 1068.45 978.45 229.42 1363.19 210.24 1747.92 191.06 2035.65 550.17 2280.7 555.84" stroke="rgba(51,121,194,0.58)" stroke-width="2"></path><path d="M407.84 1237.99C728.25 1157.73 833.31 299.64 1325.32 287.25 1817.32 274.86 2005.86 522.93 2242.79 524.85" stroke="rgba(51,121,194,0.58)" stroke-width="2"></path><path d="M758.77 1136.11C970.16 944.19 816.37 105.46 1189.71 78.46 1563.06 51.46 1823.29 376.51 2051.6 380.86" stroke="rgba(51,121,194,0.58)" stroke-width="2"></path></g><defs><mask id="SvgjsMask1369"><rect width="1920" height="1080" fill="#ffffff"></rect></mask><linearGradient x1="50%" y1="0%" x2="50%" y2="100%" gradientUnits="userSpaceOnUse" id="SvgjsLinearGradient1370"><stop stop-color="#0e2a47" offset="0"></stop><stop stop-color="rgba(0, 69, 158, 0.999)" offset="1"></stop></linearGradient></defs></svg>